<?xml version="1.0" encoding="UTF-8" standalone="no"?>
<!-- Generator: Adobe Illustrator 19.0.0, SVG Export Plug-In . SVG Version: 6.00 Build 0)  -->

<svg
   version="1.1"
   id="Capa_1"
   x="0px"
   y="0px"
   viewBox="0 0 394.974 394.974"
   style="enable-background:new 0 0 394.974 394.974;"
   xml:space="preserve"
   sodipodi:docname="piggy-bank-svgrepo-com.svg"
   inkscape:version="1.2 (dc2aedaf03, 2022-05-15)"
   xmlns:inkscape="http://www.inkscape.org/namespaces/inkscape"
   xmlns:sodipodi="http://sodipodi.sourceforge.net/DTD/sodipodi-0.dtd"
   xmlns="http://www.w3.org/2000/svg"
   xmlns:svg="http://www.w3.org/2000/svg"><defs
   id="defs89" /><sodipodi:namedview
   id="namedview87"
   pagecolor="#505050"
   bordercolor="#ffffff"
   borderopacity="1"
   inkscape:showpageshadow="0"
   inkscape:pageopacity="0"
   inkscape:pagecheckerboard="1"
   inkscape:deskcolor="#505050"
   showgrid="false"
   inkscape:zoom="0.51395788"
   inkscape:cx="-164.41036"
   inkscape:cy="381.35421"
   inkscape:window-width="1920"
   inkscape:window-height="1057"
   inkscape:window-x="-8"
   inkscape:window-y="-8"
   inkscape:window-maximized="1"
   inkscape:current-layer="XMLID_4_" />
<g
   id="XMLID_4_">
	<path
   id="XMLID_36_"
   style="fill:#ffffff"
   d="M 80 57.486328 L 80 129.11719 C 68.807011 139.57718 59.576446 151.63358 52.814453 164.85156 L 0 187.48633 L 0 247.48633 L 52.814453 270.12109 C 63.269443 290.55707 79.61802 308.2232 100 321.49219 L 100 367.48633 L 120 367.48633 L 150 367.48633 L 150 342.80469 C 162.73499 345.85168 176.14601 347.48633 190 347.48633 C 203.85399 347.48633 217.26501 345.85168 230 342.80469 L 230 367.48633 L 280 367.48633 L 280 321.49219 C 312.09997 300.59421 334.20282 268.79546 339.00781 232.4375 C 339.33881 232.4435 339.669 232.46094 340 232.46094 C 354.08199 232.45994 368.16964 227.0999 378.89062 216.37891 C 400.3356 194.93593 400.3346 160.04163 378.89062 138.59766 L 357.67773 159.81055 C 367.42572 169.55854 367.42572 185.41803 357.67773 195.16602 C 352.54874 200.29401 345.72713 202.72017 338.99414 202.45117 C 332.73715 155.37322 297.46831 115.95287 249.06836 97.962891 C 247.83436 104.96688 245.39012 111.54633 241.95312 117.48633 L 190 117.48633 L 138.04688 117.48633 C 132.93888 108.65934 130 98.419317 130 87.486328 C 130 83.017333 130.50269 78.671465 131.42969 74.480469 C 108.45971 57.497486 80 57.486328 80 57.486328 z M 105 167.48633 C 113.28399 167.48633 120 174.20234 120 182.48633 C 120 190.77032 113.28399 197.48633 105 197.48633 C 96.716008 197.48633 90 190.77032 90 182.48633 C 90 174.20234 96.716008 167.48633 105 167.48633 z " />
	
	
	
	
<path
   id="path568"
   style="font-variation-settings:'wght' 600;opacity:1;fill:#ffffff;stroke:none;stroke-width:0.332667"
   d="m 189.61365,25.983585 a 60.75,60.75 0 0 0 -60.75,60.75 60.75,60.75 0 0 0 60.75,60.749995 60.75,60.75 0 0 0 60.75,-60.749995 60.75,60.75 0 0 0 -60.75,-60.75 z m 0,17.01 a 43.74,43.74 0 0 1 43.74,43.74 43.74,43.74 0 0 1 -43.74,43.739995 43.74,43.74 0 0 1 -43.74,-43.739995 43.74,43.74 0 0 1 43.74,-43.74 z" /></g>
<g
   id="g56">
</g>
<g
   id="g58">
</g>
<g
   id="g60">
</g>
<g
   id="g62">
</g>
<g
   id="g64">
</g>
<g
   id="g66">
</g>
<g
   id="g68">
</g>
<g
   id="g70">
</g>
<g
   id="g72">
</g>
<g
   id="g74">
</g>
<g
   id="g76">
</g>
<g
   id="g78">
</g>
<g
   id="g80">
</g>
<g
   id="g82">
</g>
<g
   id="g84">
</g>
<ellipse
   style="font-variation-settings:'wght' 600;opacity:0;fill:#ff0000;stroke:#000000;stroke-width:0.377953"
   id="path408"
   cx="40.859379"
   cy="84.394073"
   rx="33.076641"
   ry="48.398907" /></svg>
